<?xml version="1.0" standalone="yes"?><svg xmlns="http://www.w3.org/2000/svg" width="1024" height="1180" viewBox="0 0 1024 1180" style="zoom: 1;"><defs><linearGradient id="neonGlow" x1="0" y1="0" x2="1" y2="1"><stop offset="0%" stop-color="#00e5ff" stop-opacity="0.9"></stop><stop offset="100%" stop-color="#00e5ff" stop-opacity="0.3"></stop></linearGradient><filter id="softGlow" x="-50%" y="-50%" width="200%" height="200%"><feGaussianBlur stdDeviation="6" result="blur"></feGaussianBlur><feMerge><feMergeNode in="blur"></feMergeNode><feMergeNode in="SourceGraphic"></feMergeNode></feMerge></filter></defs><rect width="100%" height="100%" fill="#111827"></rect><polygon points="962.330017,332 962.330017,852 512,1112 61.669998,852 61.669998,332 512,72 " stroke="#00e5ff" stroke-width="6" filter="url(#softGlow)" fill="#0b132b"></polygon><polygon points="946.74,339.00 946.74,841.00 512.00,1092.00 77.26,841.00 77.26,339.00 512.00,88.00" fill="none" stroke="url(#neonGlow)" stroke-width="3" opacity="0.9"></polygon><text x="512.0" y="400.0" text-anchor="middle" font-family="Inter,Roboto,Segoe UI,Arial,sans-serif" font-size="170" font-weight="900" fill="#e6f9ff" filter="url(#softGlow)">bigPLSR</text><text x="512.0" y="495.0" text-anchor="middle" font-family="Inter,Roboto,Segoe UI,Arial,sans-serif" font-size="40" fill="#00e5ff">streaming · chunked BLAS · bigmemory</text><text x="512.0" y="545.0" text-anchor="middle" font-family="Inter,Roboto,Segoe UI,Arial,sans-serif" font-size="38" fill="#e6f9ff" opacity="0.9">fast PLS for R</text><text x="512" y="865" text-anchor="middle" font-family="Inter,Roboto,Segoe UI,Arial,sans-serif" font-size="30" fill="#00e5ff" opacity="0.9">SIMPLS • NIPALS • PLS1/PLS2 • scores: raw / orthonormal</text><g transform="translate(262.0,630.0)"><rect x="0" y="-22" width="500" height="200" fill="none" stroke="#00e5ff" stroke-opacity="0.6" stroke-width="2"></rect><polyline points="0,120 120,70 220,95 320,40 420,55 500,20" fill="none" stroke="#00e5ff" stroke-width="4" opacity="0.9"></polyline><line x1="0" y1="0" x2="500" y2="0" stroke="#00e5ff" stroke-opacity="0.4"></line><line x1="0" y1="60" x2="500" y2="60" stroke="#00e5ff" stroke-opacity="0.25"></line><line x1="0" y1="120" x2="500" y2="120" stroke="#00e5ff" stroke-opacity="0.15"></line></g></svg>